<svg id="Layer_1" data-name="Layer 1" xmlns="http://www.w3.org/2000/svg" viewBox="0 0 1350.5 613.02"><defs><style>.cls-1{fill:#39b54a;}.cls-2,.cls-3{fill:#0071bc;}.cls-3{font-size:199.08px;font-family:ScriptMTBold, Script MT Bold;}</style></defs><title>Medocare</title><path class="cls-1" d="M367.5,624.5s-115.95-1-140.48,0-39.52-39,.48-78,86-126,101-198,20-185,16-200c0,0-5,50-9,51,0,0-31.5-13.5-38.5-76.5-2.47-22.2,7.52-49.44,10-61,4.55-21.24,1.56-29.13,3.5-50.5,0,0,65,38,66,133s-3.8,167-3.8,167H490.5v189L369,499.16Z" transform="translate(-9.5 -11.5)"/><path class="cls-2" d="M308.51,189c-33-.5-130-.5-130-.5l.5,61.28C120.5,159.06,9.5,180.5,9.5,180.5c23,2,52,40,67,83s60.4,48,60.4,48H54.5v189l100.92.5h13.47c11.39,12.5-8.39,67.5-8.39,67.5,14-6,45.54-67.5,45.54-67.5C275.57,382.5,81.5,209.5,81.5,209.5s36,23,58,44,71,76,133.5,58.5S341.5,189.5,308.51,189ZM257,298a39,39,0,1,1,39-39A39,39,0,0,1,257,298Z" transform="translate(-9.5 -11.5)"/><text class="cls-3" transform="translate(484.34 464.42) scale(1.05 1)">MedoCare</text></svg>